<?xml version="1.0" standalone="no"?>
<!DOCTYPE svg PUBLIC "-//W3C//DTD SVG 20010904//EN" "http://www.w3.org/TR/2001/REC-SVG-20010904/DTD/svg10.dtd">
<svg version="1.0" xmlns="http://www.w3.org/2000/svg" width="256" height="256" viewBox="55 20 240 232" preserveAspectRatio="xMidYMid meet">
<metadata>Frigate bird mark — extracted from https://frigate.video/images/logo.svg</metadata>
<g transform="translate(0,256) scale(0.1,-0.1)" fill="#000000" stroke="none">
<path d="M2289 2326 c-6 -7 -372 -122 -478 -151 -98 -27 -378 -134 -418 -160 -13 -9 -23 -24 -23 -34 0 -10 25 -56 55 -102 68 -104 70 -129 19 -249 -50 -116 -81 -153 -162 -191 -37 -17 -78 -42 -92 -54 -14 -12 -50 -32 -80 -43 -30 -11 -56 -27 -58 -35 -3 -13 2 -13 36 -2 54 19 82 10 82 -26 0 -32 -40 -60 -146 -104 -254 -103 -328 -136 -362 -164 -52 -40 -59 -77 -32 -161 11 -34 20 -73 20 -85 0 -21 53 -173 135 -389 33 -86 101 -205 118 -206 5 0 6 23 2 51 -6 45 -15 292 -17 504 -2 108 20 159 100 237 76 75 191 154 293 203 68 32 75 34 153 28 84 -6 223 13 299 40 27 10 52 11 80 6 54 -10 397 -11 397 -1 0 4 -32 13 -71 19 -105 16 -107 30 -5 38 166 14 75 35 -152 35 -149 0 -178 8 -231 63 -52 55 -77 199 -50 287 6 19 14 100 19 180 4 80 11 153 15 163 9 23 121 88 226 131 46 19 120 50 164 69 70 30 166 71 230 97 15 7 11 9 -21 9 -22 1 -43 -1 -45 -3z"/>
</g>
</svg>
